# xmcd
# Copyright (C) 1995-1998 Ti Kan
#
# Track frame offsets:
#       150
#       24803
#       56515
#       83529
#       108195
#       131105
#       148384
#       172572
#       194460
#       218506
#       241325
#       266276
#       288957
#       307669
#
# Disc length: 4407 seconds
#
# Revision: 0
# Processed by: cddbd v1.5.2PL0 Copyright (c) Steve Scherf et al.
# Submitted via: CD-Transfer v1.0
#
DISCID=ae11350e
DTITLE=Albidj - House Privileg
DYEAR=11
DGENRE=
TTITLE0=Mb-Al-House-01
TTITLE1=Mb-Al-House-02
TTITLE2=Mb-Al-House-03
TTITLE3=Mb-Al-House-04
TTITLE4=Mb-Al-House-05
TTITLE5=Mb-Al-House-06
TTITLE6=Mb-Al-House-07
TTITLE7=Mb-Al-House-08
TTITLE8=Mb-Al-House-09
TTITLE9=Mb-Al-House-10
TTITLE10=Mb-Al-House-11
TTITLE11=Mb-Al-House-12
TTITLE12=Mb-Al-House-13
TTITLE13=Mb-Al-House-14
EXTD=
EXTT0=
EXTT1=
EXTT2=
EXTT3=
EXTT4=
EXTT5=
EXTT6=
EXTT7=
EXTT8=
EXTT9=
EXTT10=
EXTT11=
EXTT12=
EXTT13=
PLAYORDER=
